<svg width="327" height="293" viewBox="0 0 327 293" fill="none" xmlns="http://www.w3.org/2000/svg">
    <circle cx="163.5" cy="146.5" r="142.5" fill="black"/>
    <path d="M55.68 132.68H136.56V162.92H55.68V132.68ZM58.56 201.8H150V233H19.92V65H146.88V96.2H58.56V201.8ZM232.553 234.92C220.393 234.92 209.433 232.2 199.673 226.76C189.913 221.32 182.153 213.64 176.393 203.72C170.793 193.8 167.993 182.04 167.993 168.44C167.993 155 170.793 143.32 176.393 133.4C182.153 123.48 189.913 115.8 199.673 110.36C209.433 104.76 220.393 101.96 232.553 101.96C243.913 101.96 253.593 104.36 261.593 109.16C269.753 113.96 275.993 121.24 280.312 131C284.633 140.76 286.793 153.24 286.793 168.44C286.793 183.48 284.553 195.96 280.073 205.88C275.593 215.64 269.273 222.92 261.113 227.72C252.953 232.52 243.433 234.92 232.553 234.92ZM239.033 204.2C245.113 204.2 250.633 202.76 255.593 199.88C260.553 197 264.473 192.92 267.353 187.64C270.393 182.2 271.913 175.8 271.913 168.44C271.913 160.92 270.393 154.52 267.353 149.24C264.473 143.96 260.553 139.88 255.593 137C250.633 134.12 245.113 132.68 239.033 132.68C232.793 132.68 227.193 134.12 222.233 137C217.273 139.88 213.273 143.96 210.233 149.24C207.353 154.52 205.913 160.92 205.913 168.44C205.913 175.8 207.353 182.2 210.233 187.64C213.273 192.92 217.273 197 222.233 199.88C227.193 202.76 232.793 204.2 239.033 204.2ZM271.193 279.56V206.84L273.593 168.68L272.873 130.28V103.88H308.633V279.56H271.193Z" fill="white"/>
</svg>
